<?xml version="1.0" encoding="utf-8"?>
<!-- Generator: Adobe Illustrator 23.0.2, SVG Export Plug-In . SVG Version: 6.00 Build 0)  -->
<svg version="1.1" id="Layer_1" xmlns="http://www.w3.org/2000/svg" xmlns:xlink="http://www.w3.org/1999/xlink" x="0px" y="0px"
	 viewBox="0 0 500 128" style="enable-background:new 0 0 500 128;" xml:space="preserve">
<style type="text/css">
	.st0{fill:#52BA73;}
</style>
<g>
	<polygon class="st0" points="58.42,22.43 68.73,54.19 102.13,54.19 75.11,73.81 85.43,105.57 58.42,85.94 31.4,105.57 41.72,73.81 
		14.71,54.19 48.1,54.19 	"/>
	<polygon class="st0" points="154.21,22.43 164.53,54.19 197.92,54.19 170.9,73.81 181.22,105.57 154.21,85.94 127.19,105.57 
		137.51,73.81 110.5,54.19 143.89,54.19 	"/>
	<polygon class="st0" points="250,22.43 260.32,54.19 293.71,54.19 266.7,73.81 277.01,105.57 250,85.94 222.99,105.57 233.3,73.81 
		206.29,54.19 239.68,54.19 	"/>
	<polygon class="st0" points="345.79,22.43 356.11,54.19 389.5,54.19 362.49,73.81 372.81,105.57 345.79,85.94 318.78,105.57 
		329.1,73.81 302.08,54.19 335.47,54.19 	"/>
	<polygon class="st0" points="441.58,22.43 451.9,54.19 485.29,54.19 458.28,73.81 468.6,105.57 441.58,85.94 414.57,105.57 
		424.89,73.81 397.87,54.19 431.27,54.19 	"/>
</g>
</svg>
