<?xml version="1.0" encoding="utf-8"?>
<!-- Generator: Adobe Illustrator 23.0.2, SVG Export Plug-In . SVG Version: 6.00 Build 0)  -->
<svg version="1.1" id="Layer_1" xmlns="http://www.w3.org/2000/svg" xmlns:xlink="http://www.w3.org/1999/xlink" x="0px" y="0px"
	 viewBox="0 0 362.98 216" style="enable-background:new 0 0 362.98 216;" xml:space="preserve">
<style type="text/css">
	.st0{fill:#00B140;}
	.st1{fill:#FFFFFF;}
	.st2{clip-path:url(#SVGID_2_);}
	.st3{fill:#333333;}
	.st4{fill:#241F20;}
</style>
<g>
	<g>
		<path d="M352.07,176.01c-1.02,1-2.25,1.49-3.69,1.49c-1.49,0-2.73-0.51-3.75-1.53c-1.01-1.01-1.52-2.26-1.52-3.75
			c0-1.54,0.55-2.82,1.65-3.85c1.02-0.95,2.24-1.43,3.63-1.43c1.45,0,2.7,0.51,3.73,1.55c1.03,1.03,1.55,2.28,1.55,3.73
			C353.65,173.72,353.13,174.98,352.07,176.01z M345.28,169.17c-0.85,0.86-1.26,1.88-1.26,3.06c0,1.22,0.42,2.26,1.28,3.11
			c0.85,0.86,1.88,1.28,3.08,1.28c1.2,0,2.22-0.43,3.08-1.29c0.84-0.86,1.27-1.9,1.27-3.11c0-1.17-0.42-2.2-1.27-3.06
			c-0.85-0.88-1.88-1.32-3.08-1.32C347.16,167.84,346.13,168.29,345.28,169.17z M346.06,175.16v-5.85c0.36,0,0.91,0,1.64,0.01
			c0.72,0,1.12,0,1.2,0.01c0.46,0.04,0.85,0.13,1.15,0.3c0.52,0.29,0.78,0.75,0.78,1.4c0,0.49-0.14,0.85-0.41,1.06
			c-0.28,0.22-0.61,0.35-1.01,0.39c0.37,0.08,0.64,0.19,0.83,0.34c0.35,0.28,0.53,0.72,0.53,1.31v0.53c0,0.05,0,0.12,0.01,0.17
			c0,0.05,0.01,0.11,0.04,0.17l0.05,0.17h-1.46c-0.04-0.19-0.08-0.46-0.09-0.81c-0.02-0.36-0.05-0.59-0.1-0.71
			c-0.07-0.21-0.22-0.35-0.42-0.43c-0.12-0.05-0.3-0.08-0.53-0.09l-0.34-0.02h-0.32v2.07H346.06z M348.85,170.46
			c-0.21-0.09-0.5-0.12-0.89-0.12h-0.37v1.69h0.59c0.37,0,0.64-0.07,0.83-0.21c0.21-0.14,0.31-0.37,0.31-0.69
			C349.33,170.81,349.17,170.59,348.85,170.46z"/>
	</g>
	<g>
		<g>
			<g>
				<g>
					<path d="M153.01,92.98l-0.94-26.89c-0.08-1.16-0.08-3.2-0.08-5.17h-0.8c-0.14,1.53-0.43,3.28-0.87,5.17l-6.41,26.89h-14.57
						l-6.85-26.89c-0.37-1.53-0.58-3.2-0.73-5.17h-0.8c0,1.97,0,3.13-0.08,5.17l-1.31,26.89h-13.18l3.63-53.4h17.93l7.94,29.79
						c0.51,2.04,0.95,5.17,0.95,7.21h0.8c0-2.03,0.22-5.17,0.72-7.21l7.22-29.79h18.22l3.42,53.4H153.01z"/>
					<path d="M174.53,92.98v-53.4h34.24v12.38h-19.22v7.94h17.85v12.31h-17.85v8.46h19.67l0.73,12.31H174.53z"/>
					<path d="M245.12,92.98l-12.02-24.41c-0.94-1.9-1.82-4.37-2.25-6.63h-0.81c0.15,2.11,0.3,4.59,0.3,6.63v24.41h-13.55v-53.4
						h15.51l10.49,21.2c0.88,1.68,1.75,4.08,2.33,6.55h0.81c-0.22-2.11-0.36-4.51-0.36-6.55v-21.2h13.55v53.4H245.12z"/>
				</g>
				<path class="st0" d="M277,93V40h15v53H277z"/>
				<path class="st0" d="M328.67,92.98l-12.02-24.41c-0.95-1.9-1.82-4.37-2.26-6.63h-0.8c0.15,2.11,0.29,4.59,0.29,6.63v24.41
					h-13.54v-53.4h15.51l10.48,21.2c0.88,1.68,1.75,4.08,2.34,6.55h0.8c-0.22-2.11-0.37-4.51-0.37-6.55v-21.2h13.57v53.4H328.67z"/>
			</g>
			<g>
				<path d="M163.15,176.31c-1.82,0.29-4.78,0.58-6.89,0.58c-7.93,0-11.27-2.97-15.19-11.09l-7.46-15.49l-7.74,11.09v14.9h-19.49
					v-70h19.49v29.58h1.05c0.76-2.87,2.37-6.88,4.96-11.09l11.57-18.5h20.27v1.04l-18.07,25.68l12.04,24.36
					c0.87,1.72,1.15,2.1,3.25,2.1c0.86,0,1.53-0.1,2.2-0.19V176.31z"/>
				<path d="M170.64,176.31v-70h19.69v70H170.64z"/>
				<path d="M201.64,176.31v-70h19.7v53.47h21.88l1.34,16.53H201.64z"/>
				<path d="M275.12,122.51v53.8h-19.79v-53.8h-15.01v-16.2h49.9v16.2H275.12z"/>
				<path d="M318.49,177.28c-6.42,0-11.58-0.38-23.9-5.07l4.58-16.24c15.2,4.77,17.4,4.97,21.51,4.97c3.25,0,5.34-1.72,5.34-5.15
					c0-2.78-1.61-3.93-4.4-4.79l-11.18-3.63c-8.03-2.58-15.2-8.5-15.2-19.77c0-14.19,11.56-22.23,26.38-22.23
					c5.36,0,10.43,0.58,21.6,3.54l-4.1,16.3c-11.95-2.95-15.97-3.53-19.59-3.53c-3.06,0-5.08,1.23-5.08,4.77
					c0,2.48,1.82,3.34,4.59,4.29l11.19,3.83c8.4,2.77,15.1,8.51,15.1,19.78C345.33,169.44,333.48,177.28,318.49,177.28z"/>
			</g>
		</g>
	</g>
</g>
<g>
	<g>
		<path d="M85.61,86.72c5.74-7.94,5.95-13.23,5.95-13.23s1.12-2.41,0.62-4.94c-0.33-1.66-3.23-5.63-3.23-5.63
			c-1.02-2.28-2.26-4.16-2.99-5.17c0.43-0.53,0.69-0.88,0.69-0.88s-1.75-2.52-8.32-7.75c0,0-0.6-3.82-6-6.69
			c-4.16-2.21-9.66-1.04-9.66-1.04l-4.99-1.96l-0.42-0.28l0.3-2.51c0.27-0.06,0.71-0.26,0.95-0.43c0.79-1.23,1.67-2.55,1.85-3.26
			c0.34-1.63,0.79-4.28,0.88-5.71c0.06-1.01-0.59-2.92-0.59-2.92s0.08-1.65-0.04-2.11c-0.12-0.45-1.17-5.03-1.17-5.03l0.63-1.52
			c0,0-4.94-3.37-8.56-3.6c-3.62-0.23-5.64,0.68-7.79,3.33c-1.73,2.15-1.4,4.83-1.43,5.98c-0.01,0.25-0.75-0.15-1.34,0.76
			c-0.58,0.91-1.38,4.35,0.86,5.66c0.58,0.34,1.28,0.68,1.28,0.68s-0.02,8.16-0.45,8.8c-0.83,0.69-3.73,2.82-4.44,2.92
			c-0.75,0.1-3.55-1.26-7.81-0.34c-5.74,1.25-7.04,4.86-8.26,6.87c0,0-4.8,1.38-9.32,9c0,0,0.18,0.2,0.5,0.52
			c-4.66,6.26-4.27,15.42-3.49,16.2c0.86,0.86,2.36,1.71,3,2.36c10.45,10.45,21.01,16.18,21.01,16.18s-0.11,0.75,0.96,1.28
			c0.67,0.34,2.87,1.14,4.41,1.69c-0.04,0.28-0.08,0.56-0.13,0.86c-1.41,9.63-6.79,44.41-6.79,44.41l5.02,2.54
			c0,0-2,4.95-1.72,12.04c0.17,4.1,1.64,13.37,2.85,20.45l-1.36,0.17l1.64,10.5c-2.02,2.34-5.71,6.7-6.86,8.59
			c-1.2,1.96-1.08,3.75-0.56,5.14l-0.65,0.97l0.26,1.21c0,0,1.84,2.37,6.28,2.91c3.24,0.39,6.46-0.27,8.48-1.07
			c1.29-0.51,1.62-1.48,1.62-1.48l0.1-2.51c0.14-0.42,0.22-0.87,0.21-1.37c-0.04-2.29-0.46-6.35,0.11-8.62
			c0.57-2.26,0.86-5.02,0.74-6.68c-0.12-1.65-1.13-9.35,2.27-17.29c3.4-7.94,4.54-10.49,4.54-21.54l5.89,0.04
			c0,0-0.48,3.49,0.63,8.57c0.24,1.11,1.03,3.02,1.82,4.76c1.03,2.78,4.39,11.49,3,19.55c-0.16,1.15-0.44,2.41-0.89,3.32
			c-1.07,2.13-0.36,4.91-0.66,5.02c-0.4,0.15-0.24,0.84-0.24,0.84l-0.07,3.21c1.81,1.38,8.51,1.99,8.51,1.99l0.07-1.33
			c9.58,5.09,16.04,2.04,16.04,1.64c0-0.25,0.23-1.2,0.05-1.83c-0.1-0.37-0.31-0.49-0.31-0.49c0.11-2.33,0.32-2.76-4.15-5.24
			c-4.42-2.45-8.35-2.01-8.57-7.85c-0.05-1.34-0.07-1.82-0.07-1.82l-1.03-0.04c0.22-5.31,0.71-19.69,0.25-31.47
			c0,0,1.83,0.28,3.24,0c1.41-0.28,0.85-2.26,2.83-2.26c1.99,0,2.83,1.7,1.14-13.32c-0.78-6.91-3.28-20.58-5.48-33.45l1.94,0.29
			C82.73,91.25,85.35,88.38,85.61,86.72z M38.55,79.38l-1.88,1.91c-3.22-1.72-5.63-3.08-7.66-7.8c-2.04-4.71-4.96-5.64-4.96-5.64
			c0.68-0.28,1.26-0.6,1.73-0.89c0.39,0.27,0.77,0.53,1.16,0.79c0,0,4.63-3.91,6.15-5.56l7.46,16.99L38.55,79.38z M79.3,79.32
			l-2.11-1.23l-2.24,0.49c-0.26-4.52-0.88-10.59-1.18-13.46c0.66,0.69,1.42,1.43,1.79,1.84c0.17,0.19,1.03-0.58,1.16-0.39
			c1.03,1.55,2.22,3.04,2.81,3.38c-0.39,2.46,0.27,6.33,0.27,6.33L79.3,79.32z"/>
		<path class="st1" d="M30.94,81.13c0.4-0.02-1.5-1.07-3.63-5.22c-2.13-4.14-1.97-6-6.49-8.14c0,0,1.03,0.3,1.95-1.61
			c-4.47-3.58-8.02-7.51-8.02-7.51s-3.77,6.28-4.03,11.8c0,0,3.84,3.52,9.7,4.9l-2.99,0.62C17.42,75.97,23.28,81.38,30.94,81.13z"/>
		<path class="st1" d="M67.54,160.94c0,0-0.93-3.63-1.92-6.19c0,0,2.71-6.82,7.63-9.39c0,0,0,8.28-0.39,14.99
			C72.87,160.35,69.71,161.93,67.54,160.94z"/>
		<path class="st1" d="M49.56,145.23c0,0-5.24,4.72-8.39,3.67c0,0-2.72,5.27,0.58,16.29c0,0,1.31,1.06,3.09,0.67l3.44-15l0.76,9.59
			C55.86,148.38,49.56,145.23,49.56,145.23z"/>
		<g>
			<defs>
				<path id="SVGID_1_" d="M38.44,138.86c9.39,4.23,16.39,2.23,16.39,2.23L42.41,94.45L38.44,138.86z M44.51,84.35l-1.37,7.91
					l16.16,46.77c5.5,1.03,13,1.21,13,1.21l3.51-44.54l-2.76-12.04C56.2,80.57,44.51,84.35,44.51,84.35z M75.81,95.7
					c0,0-1.38,41.95-1.38,44.01h2.75l1.72-3.44l3.1,0.35L75.81,95.7z"/>
			</defs>
			<clipPath id="SVGID_2_">
				<use xlink:href="#SVGID_1_"  style="overflow:visible;"/>
			</clipPath>
			<g class="st2">
				<polygon class="st0" points="86.05,154.1 29.92,151.41 32.95,73.92 89.09,76.6 				"/>
				
					<rect x="59.75" y="53.83" transform="matrix(0.0391 -0.9992 0.9992 0.0391 -21.8447 136.7272)" class="st3" width="0.82" height="51.79"/>
				<path class="st1" d="M85.65,83.74c-1.09-0.58-2.54-1.06-4.22-1.46l0.15-4.38l-1.94-0.07l-0.16,4.05
					c-3.81-0.7-8.55-1.05-13.53-1.19l0.12-3l-3.04-1.2l-0.16,4.14c-5.68-0.07-11.44,0.11-16.29,0.33l0.11-3.06l-1.94-0.07
					l-0.13,3.23c-6,0.32-10.17,0.68-10.17,0.68s-3.44,5.62,0.74,4.81c3.22-0.62,6.29-1.09,9.27-1.42l-0.85,21.68l-9.96-0.39
					l-0.12,2.95l9.97,0.39L42.6,132.5l-10.05-0.39l-0.09,2.46l10.05,0.39l-0.62,15.97l2.26-0.02l0.55-15.86l16.02,0.63l-0.52,13.38
					l3.04,1.19l0.57-14.45l13.56,0.53l-0.57,14.61l2.26-0.02l0.5-14.5l4.52,0.18l0.1-2.46l-4.53-0.18l0.79-22.75l4.72,0.18
					l0.12-2.94l-4.73-0.19l0.75-21.67c1.35,0.19,2.72,0.39,4.12,0.6C86.03,87.18,86.99,84.97,85.65,83.74z M60.8,133.21l-16.03-0.63
					l0.79-22.75l16.12,0.63L60.8,133.21z M45.67,106.89l0.76-21.96c5.55-0.52,10.85-0.58,16.27-0.3l-0.9,22.9L45.67,106.89z
					 M77.45,133.86l-13.56-0.53l0.89-22.75l13.56,0.53L77.45,133.86z M78.45,108.17l-13.56-0.53l0.89-22.82
					c4.32,0.32,8.77,0.84,13.52,1.49L78.45,108.17z"/>
				<path d="M85.56,93.04l0.04-0.82L69.63,91.6l0.55-13.91l-1.04-0.23l-0.55,14.1l-9.84-0.38l0.53-13.49l-1.04-0.23l-0.53,13.68
					l-8.76-0.34l0.51-13.1l-1.04-0.23l-0.52,13.29L33.84,90.2l-0.03,0.82l14.04,0.55l-0.06,1.45l-13.9-0.54l-0.11,2.74l13.9,0.54
					l-0.06,1.65l-14.06-0.55l-0.03,0.83l14.05,0.55l-0.74,19l-14.05-0.55l-0.03,0.82l14.05,0.55l-0.07,1.87l-14.04-0.55l-0.09,2.19
					l14.04,0.55l-0.07,1.88l-14.04-0.55l-0.04,0.82l14.05,0.55l-0.99,25.21l1.04,0.22l0.99-25.39l8.76,0.34l-0.97,24.83l1.04,0.22
					l0.98-25.01l9.84,0.39l-0.96,24.4l1.04,0.22l0.96-24.59l15.96,0.63l0.03-0.82l-15.96-0.63l0.07-1.87l16.11,0.63l0.08-2.19
					l-16.1-0.63l0.07-1.88l15.96,0.62l0.03-0.82l-15.96-0.63l0.75-19l15.95,0.62l0.03-0.82l-15.95-0.62l0.06-1.65l15.55,0.61
					l0.11-2.73l-15.56-0.61l0.06-1.45L85.56,93.04z M48.9,91.61l8.76,0.34L57.6,93.4l-8.76-0.34L48.9,91.61z M48.73,95.8l8.76,0.34
					l-0.07,1.64l-8.76-0.34L48.73,95.8z M48.63,98.27l8.76,0.34l-0.74,19l-8.76-0.34L48.63,98.27z M47.86,118.08l8.76,0.34
					l-0.07,1.87l-8.76-0.34L47.86,118.08z M47.63,124.03l0.07-1.88l8.76,0.34l-0.08,1.88L47.63,124.03z M67.27,124.8l-9.84-0.39
					l0.07-1.88l9.84,0.39L67.27,124.8z M67.44,120.73l-9.84-0.39l0.07-1.88l9.84,0.39L67.44,120.73z M67.54,118.04l-9.84-0.38
					l0.74-19l9.84,0.38L67.54,118.04z M68.32,98.21l-9.84-0.38l0.06-1.65l9.85,0.39L68.32,98.21z M68.49,93.83l-9.84-0.38L58.7,92
					l9.84,0.38L68.49,93.83z"/>
				<polygon points="83.8,148.66 32.59,146.66 32.74,142.82 83.94,144.83 				"/>
			</g>
		</g>
		<path class="st1" d="M45.53,32.76l0,5.46c0,0,6.83,2.93,9.06,2.23C48.55,38.14,45.63,33.12,45.53,32.76z"/>
		<path class="st4" d="M53.5,31.47c0,0,1.03,0.21,1.9,0.21c0.63,0,1.49-0.25,1.49-0.25l-0.49,1.31c0,0-0.63-0.28-1.96,0.07
			L53.5,31.47z"/>
		<path class="st1" d="M87.79,65.09c0.34,0.68,1.87,0.94,2.38,3.3c0.51,2.37-3.71,6.76-3.71,6.76l2.7,0.17c0,0-1.81,6.37-4.14,9.73
			c-0.66,2.94-5.02,4.76-5.02,4.76l-0.51-2.12l-1.26-1.25l-0.01-0.84l0.21-1.34l-0.72-1.4l0.05-1.98c0,0,1.13-0.53,4.25,2.36
			c0,0-0.39-1.44-1.44-2.66c0.5-1.56,1.01-4.02,1.01-4.02s-1.3-4.69,0.94-8.4c0,0,0.32-0.52-0.25,0.46
			c-0.99,0.43-2.8-2.04-3.48-3.22c0,0,1.73-0.93,6.34-6.31c0,0,1.05,1.05,2.23,4.09l-1.11-0.39L87.79,65.09z"/>
		<path class="st1" d="M21.18,49.14c0.37-0.16-0.62,6.69,2,13.28c0,0-5.97-4.58-7.84-6.56C15.34,55.86,17.33,50.89,21.18,49.14z"/>
		<path class="st1" d="M77.09,49.82c-0.64-2.17-3.83-5.9-6.81-6.76c-3.93-1.12-6.91,0.05-6.91,0.05c-1.15-0.11-5.3-1.17-6.31-1.42
			c-4.14,1.93-13.65-2.34-13.65-2.34l-2.81,2.05l5.69,3.54c0,0-3.49-0.59-5.42-1.6c-2.83-1.48-5.58-2.8-9.31-2.3
			c-3.73,0.5-7.19,3.56-8.38,7.24c-0.78,2.39,0.61,4.95,0.61,4.95c4.1,1.36,16.71,0.71,16.71,0.71c-1.74,1.49-3.96,3.25-3.96,3.25
			c5.6,3.98,14.23,7.87,14.23,7.87s-3.51,1.27-9.37,0.22c3.45,3.76,8.27,13.68,8.27,13.68C64.25,77.61,73,79.73,73,79.73
			s-0.13-3.03-0.36-6.27c-0.23-3.24-0.48-6.72-1.01-11.15c2.08-1.61,3.23-5.89,2.89-9.83l0.05,0.03c2.01,2.88,2.49,5.66,2.79,8.13
			l1.56,1.55c4.64-2.73,6.07-5.11,6.07-5.11C81.78,52.94,77.09,49.82,77.09,49.82z"/>
	</g>
	<g>
		<path class="st1" d="M59.46,24.09c0,0-0.93,0.31-1.27,0.37c-0.34,0.07-1.29-0.17-1.29-0.17l0.25,2.82l0,0l0.08,0.93
			c-0.03,0.01-0.34,0.12-0.6,0.17c-0.2,0.56-0.49,0.99-0.62,1.17c-0.34,0.1-0.61,0.11-0.82,0.08c-0.34-0.33-0.76-0.85-1-1.27
			c0,0-0.77,0.07-1.02-0.53l0.01,0c0.05,0.03,0.27,0.12,0.71,0.06c0.51-0.07,0.43,0.21,1.31,0.21c0.37,0,0.94-0.18,0.94-0.18
			s-0.7-3.95-0.69-4.29c0.01-0.37,1.09-1.11,1.46-1.28c0.52-0.24,2.43-0.35,2.43-0.35s-0.26-2.62-0.93-4.51c0,0-1.37,0.49-2.06,0.33
			c-0.69-0.15-1.81-0.82-2.99-1.52c-1.81-1.07-3.08-0.88-3.69-0.77c-0.62,0.11-1.52,0.48-2.14,1.26c-0.82,1.03-1.15,2.01-1.15,2.01
			l1.56,1.69c0,0-0.65,0.33-1.07,1.23c-0.36,0.8-0.41,1.03-0.29,1.65c-0.45-0.16-0.86-0.04-0.86-0.04s0.04,3.24,1.75,4.29
			c0.86,0.52,0.92,3.15,0.92,3.15l-2.22-0.93c0,0,1.32,2.63,1.97,3.29c0.29,0.24,2.45,1.22,5.61,2.07c0.06,0.01,0.11,0.03,0.14,0.04
			c0.48,0.11,3.97-0.11,4.09-0.28c0.28-0.56,0.52-0.51,1.24-1.93c0.18-0.48,0.73-4.6,0.84-5.71C60.12,26.56,59.46,24.09,59.46,24.09
			z"/>
		<path d="M53.62,31.37c0,0,1.03,0.21,1.89,0.21c0.62,0,1.48-0.25,1.48-0.25l-0.49,1.3c0,0-0.63-0.28-1.94,0.07L53.62,31.37z"/>
		<path d="M49.48,31c0,0,0.2-2.22,0.53-2.55c0.33-0.33,2.71-1.07,3.37-1.07c0,0-1.76,1.03-2.59,2.2c0,0,0.99,0.32,1.72,0.3
			c1.07-0.04,2.09-0.34,2.99,0.03c0,0,0.49-0.13,0.98-0.09c0.49,0.04,0.9,0.17,1.18,0.17c0.39,0,0.65-0.07,0.81-0.17
			c-0.1-0.72-0.72-1.48-1.29-1.81c-0.33-0.19-0.36-0.5-0.09-0.5c0,0,1.6,0.49,1.85,0.78c0.24,0.29,0.17,1.58-0.2,2.68l-0.18-0.6
			c0,0-0.74,0.26-0.99,0.26c-0.53,0-1.19-0.18-2.2,0.05c0,0-0.61-0.16-1.64-0.12c-0.81,0.03-1.56-0.07-2.14-0.19
			c-0.48-0.1-1.26-0.39-1.26-0.39S50.05,30.47,49.48,31z"/>
	</g>
	<path d="M53.25,23.87c-0.17-0.18-0.33-0.37-0.5-0.51c0.28-0.06,1.25-0.29,1.67-0.41v-0.24c-0.37-0.21-1.14-0.55-1.58-0.68
		c-0.96-0.3-2-0.52-2.59-0.49c-0.94,0.06-2.59,0.64-2.59,0.64c0.43,0.18,0.64,0.3,1.7,0.15c0.66-0.1,1.08,0.06,1.3,0.19
		c-0.53,0.05-1.43,0.31-2.1,0.54v0.38c0.28,0.05,0.58,0.12,0.85,0.24c0.64,0.26,1.36,0.5,1.87,0.54c0.37,0.03,1.45,0,1.98-0.02
		V23.87z"/>
</g>
</svg>
